<svg width="96" height="96" xmlns="http://www.w3.org/2000/svg" xmlns:xlink="http://www.w3.org/1999/xlink" xml:space="preserve" overflow="hidden"><g transform="translate(-1134 -246)"><path d="M1178.98 253.05 1178.98 327.809 1170.08 318.914C1168.92 317.754 1167.04 317.754 1165.88 318.914 1164.72 320.074 1164.72 321.954 1165.88 323.114L1179.88 337.1C1180.99 338.26 1182.82 338.305 1183.98 337.2 1184.02 337.168 1184.05 337.134 1184.08 337.1L1198.07 323.112C1199.23 322.007 1199.28 320.172 1198.17 319.012 1198.14 318.978 1198.11 318.945 1198.07 318.912 1196.97 317.752 1195.13 317.707 1193.97 318.812 1193.94 318.844 1193.9 318.878 1193.87 318.912L1184.98 327.807 1184.98 253.05C1184.98 251.393 1183.63 250.05 1181.98 250.05 1180.32 250.05 1178.98 251.393 1178.98 253.05Z"/></g></svg>