<svg width="96" height="96" xmlns="http://www.w3.org/2000/svg" xmlns:xlink="http://www.w3.org/1999/xlink" xml:space="preserve" overflow="hidden"><g transform="translate(-1134 -118)"><path d="M1185.03 206.951 1185.03 132.192 1193.93 141.092C1195.09 142.252 1196.97 142.252 1198.13 141.092 1199.29 139.932 1199.29 138.052 1198.13 136.892L1184.13 122.9C1183.03 121.74 1181.19 121.695 1180.03 122.8 1180 122.833 1179.96 122.866 1179.93 122.9L1165.94 136.89C1164.78 137.995 1164.74 139.83 1165.84 140.99 1165.87 141.024 1165.91 141.057 1165.94 141.09 1167.05 142.25 1168.88 142.295 1170.04 141.19 1170.08 141.158 1170.11 141.124 1170.14 141.09L1179.04 132.195 1179.04 206.951C1179.04 208.608 1180.38 209.951 1182.04 209.951 1183.69 209.951 1185.04 208.608 1185.04 206.951Z"/></g></svg>