<svg width="96" height="96" xmlns="http://www.w3.org/2000/svg" xmlns:xlink="http://www.w3.org/1999/xlink" xml:space="preserve" overflow="hidden"><g transform="translate(-62 -76)"><path d="M110 96C111.933 96 113.5 94.433 113.5 92.5 113.5 90.567 111.933 89 110 89L109.9 89C107.997 89.034 106.479 90.5972 106.5 92.5 106.503 94.4316 108.068 95.9967 110 96ZM109.934 91 110 91C110.828 91 111.5 91.6716 111.5 92.5001 111.5 93.3285 110.828 94 110 94 109.171 94 108.5 93.3284 108.5 92.4999 108.5 92.4953 108.5 92.4906 108.5 92.486 108.487 91.6803 109.128 91.0159 109.934 91Z"/><path d="M140 94.979C140 92.7699 138.209 90.979 136 90.979L121 90.979 121 88.979C120.996 86.2192 118.76 83.9829 116 83.979L104 83.979C101.24 83.9823 99.0033 86.2189 99 88.979L99 90.979 84 90.979C81.792 90.9818 80.0028 92.771 80 94.979L80 160C80 162.209 81.7909 164 84 164L136 164C138.209 164 140 162.209 140 160ZM97 92.979 101 92.979 101 88.979C101 87.3221 102.343 85.979 104 85.979L116 85.979C117.657 85.979 119 87.3221 119 88.979L119 92.979 123 92.979 123 101 97 101ZM136 162 84 162C82.8954 162 82 161.105 82 160L82 94.979C82 93.8744 82.8954 92.979 84 92.979L95 92.979 95 103 125 103 125 92.979 136 92.979C137.105 92.979 138 93.8744 138 94.979L138 160C138 161.105 137.105 162 136 162Z"/></g></svg>