<svg width="96" height="96" xmlns="http://www.w3.org/2000/svg" xmlns:xlink="http://www.w3.org/1999/xlink" xml:space="preserve" overflow="hidden"><g transform="translate(-62 -202)"><path d="M112.067 249.183C112.067 248.079 111.172 247.185 110.068 247.185 108.964 247.185 108.069 248.08 108.069 249.184 108.07 250.288 108.965 251.183 110.069 251.183 110.599 251.182 111.107 250.972 111.481 250.597 111.858 250.223 112.068 249.714 112.067 249.183Z"/><path d="M137.444 230.189C134.845 230.182 132.307 230.974 130.173 232.457L123.944 235.925 127.411 229.697C127.947 228.88 128.423 228.025 128.835 227.139 130.1 224.065 130.072 220.611 128.758 217.558 126.077 211.182 118.736 208.187 112.361 210.868 109.288 212.16 106.857 214.625 105.606 217.715 104.342 220.788 104.37 224.242 105.684 227.295 106.973 230.357 109.426 232.782 112.503 234.037 113.064 234.271 113.645 234.454 114.239 234.585L106.851 241.973 104.791 246.56 77.0166 262.224 69.4658 274.808 97.9009 262.062 85.1538 290.494 97.7407 282.943 113.214 255.268 117.798 253.21 125.221 245.788C126.892 252.529 133.711 256.638 140.451 254.967 147.192 253.296 151.301 246.477 149.63 239.737 148.241 234.134 143.216 230.197 137.444 230.188ZM74.4551 270.38 78.46 263.706 103.43 249.624 99.1287 259.32ZM96.2551 281.502 89.5822 285.506 101.874 258.09 101.859 258.096 106.437 247.777 108.524 243.128 118.587 233.067 116.437 232.888C115.35 232.827 114.28 232.591 113.267 232.189 110.676 231.133 108.611 229.091 107.525 226.513 106.422 223.951 106.397 221.053 107.457 218.473 109.634 213.084 115.767 210.48 121.156 212.657 123.757 213.708 125.831 215.753 126.918 218.34 128.019 220.892 128.047 223.78 126.996 226.354 126.615 227.159 126.179 227.937 125.689 228.681L118.78 241.089 118.791 241.083 111.647 253.973ZM137.444 253.299C131.952 253.291 127.373 249.096 126.885 243.626L126.711 241.469 116.644 251.536 114.833 252.349 122.098 239.242 131.19 234.181 131.277 234.126C133.084 232.86 135.238 232.183 137.444 232.189 143.274 232.152 148.029 236.849 148.064 242.678 148.1 248.508 143.404 253.262 137.575 253.298 137.531 253.299 137.488 253.299 137.445 253.298Z"/><path d="M137.444 235.966C133.701 235.98 130.678 239.025 130.691 242.768 130.705 246.491 133.719 249.506 137.442 249.521L137.444 249.521C141.187 249.535 144.233 246.512 144.247 242.769 144.262 239.026 141.239 235.98 137.496 235.966 137.479 235.966 137.461 235.966 137.444 235.966ZM137.444 247.521 137.442 247.521C134.802 247.52 132.663 245.38 132.663 242.74 132.663 240.1 134.804 237.96 137.444 237.96 140.084 237.961 142.224 240.101 142.223 242.741 142.223 245.381 140.083 247.52 137.444 247.521Z"/><path d="M123.45 225.099C124.107 223.429 124.091 221.569 123.405 219.911 122.721 218.247 121.381 216.938 119.701 216.294 118.031 215.638 116.172 215.654 114.514 216.339 112.849 217.023 111.54 218.363 110.896 220.043 110.239 221.713 110.255 223.572 110.941 225.23 111.625 226.895 112.965 228.204 114.646 228.848 115.44 229.156 116.285 229.314 117.137 229.314 119.904 229.33 122.404 227.661 123.45 225.099ZM115.367 226.982C114.197 226.534 113.264 225.622 112.788 224.462 112.301 223.28 112.291 221.955 112.761 220.766 113.481 218.967 115.234 217.796 117.172 217.82 117.79 217.82 118.403 217.936 118.979 218.16 120.149 218.609 121.082 219.52 121.558 220.68 122.045 221.859 122.056 223.18 121.589 224.367 120.575 226.789 117.808 227.952 115.367 226.982Z"/></g></svg>