<svg width="96" height="96" xmlns="http://www.w3.org/2000/svg" xmlns:xlink="http://www.w3.org/1999/xlink" xml:space="preserve" overflow="hidden"><g transform="translate(-62 -453)"><path d="M72.937 528.994C72.9721 529.006 73.0083 529.015 73.045 529.021L135 529.021 148.6 499.813C149.571 497.786 148.715 495.356 146.689 494.385 146.283 494.191 145.847 494.065 145.4 494.013L141 494.013 141 485.013C140.993 482.807 139.206 481.02 137 481.013L107.28 481.013C107.099 481.013 106.921 480.959 106.77 480.859L96 473.706C95.3422 473.281 94.5826 473.039 93.8 473.006L75 473.006C72.7936 473.013 71.0066 474.8 71 477.006L71 527C71.0027 528.078 71.8594 528.96 72.937 528.994ZM145.293 496.011C146.421 496.211 147.173 497.288 146.973 498.416 146.942 498.589 146.889 498.759 146.815 498.919L146.802 498.944 146.791 498.969 133.731 527.015 133.722 527.021 75.1 527.021C75.0945 527.021 75.0901 527.016 75.0902 527.011 75.0902 527.01 75.0905 527.008 75.091 527.007L87.43 497.019C87.7183 496.411 88.3273 496.02 89 496.011ZM73 477.006C73 475.901 73.8954 475.006 75 475.006L93.8 475.006C94.2126 475.04 94.6096 475.18 94.953 475.411L105.663 482.52C106.142 482.838 106.705 483.008 107.28 483.008L137 483.008C138.105 483.008 139 483.903 139 485.008L139 494 90 494C89.947 494 89.9 494.009 89.844 494.011L89 494.011C87.5345 494.018 86.2071 494.877 85.6 496.211L73.019 526.785C73.0173 526.79 73.0116 526.793 73.0064 526.791 73.0034 526.79 73.001 526.788 73 526.785Z"/></g></svg>