<svg width="96" height="96" xmlns="http://www.w3.org/2000/svg" xmlns:xlink="http://www.w3.org/1999/xlink" xml:space="preserve" overflow="hidden"><g transform="translate(-55 -579)"><path d="M124 614.1 111 611 111 609 113 609 113 600C113 598.895 112.105 598 111 598L108.7 598 108.7 594C108.7 587.9 106.2 583 103 583 99.8 583 97.3 587.9 97.3 594L97.3 598 95 598C93.8954 598 93 598.895 93 600L93 609 95 609 95 611 82 614.1C80.2221 614.555 78.984 616.165 79 618L79 667C79.0066 669.206 80.7936 670.993 83 671L123 671C125.206 670.993 126.993 669.206 127 667L127 618C126.985 616.175 125.76 614.583 124 614.1ZM99.3 594C99.3 588.506 101.491 585 103 585 104.509 585 106.7 588.506 106.7 594L106.7 598 99.3 598ZM95 600 111 600 111 607 95 607ZM125 667C125 668.105 124.105 669 123 669L83 669C81.8954 669 81 668.105 81 667L81 618C80.9819 617.09 81.5854 616.284 82.464 616.045L95.464 612.945 97 612.579 97 609 109 609 109 612.579 110.536 612.945 123.478 616.031C124.366 616.276 124.986 617.078 125 618Z"/><path d="M90 654 116 654 116 624 90 624ZM92 626 114 626 114 652 92 652Z"/></g></svg>