<svg width="96" height="96" xmlns="http://www.w3.org/2000/svg" xmlns:xlink="http://www.w3.org/1999/xlink" xml:space="preserve" overflow="hidden"><g transform="translate(-592 -312)"><path d="M669.118 326 616.292 326 606 336.292 606 389.118C606.003 391.813 608.187 393.997 610.882 394L669.118 394C671.813 393.997 673.997 391.813 674 389.118L674 330.882C673.997 328.187 671.813 326.003 669.118 326ZM623 328 657 328 657 351C657 351.552 656.552 352 656 352L624 352C623.448 352 623 351.552 623 351ZM672 389.118C671.998 390.709 670.709 391.998 669.118 392L610.882 392C609.291 391.998 608.002 390.709 608 389.118L608 337.118 617.12 328 621 328 621 351C621 352.657 622.343 354 624 354L656 354C657.657 354 659 352.657 659 351L659 328 669.118 328C670.709 328.002 671.998 329.291 672 330.882Z"/><path d="M640 360C633.925 360 629 364.925 629 371 629 377.075 633.925 382 640 382 646.075 382 651 377.075 651 371 650.993 364.928 646.072 360.007 640 360ZM640 380C635.029 380 631 375.971 631 371 631 366.029 635.029 362 640 362 644.971 362 649 366.029 649 371 648.994 375.968 644.968 379.994 640 380Z"/><path d="M637 368 643 368 643 374 637 374Z"/><path d="M636 331 628 331 628 349 636 349ZM634 347 630 347 630 333 634 333Z"/></g></svg>